<?xml version="1.0" encoding="UTF-8"?>
<level>
  <owner>nanomw</owner>
  <repo>tonic-harmonic</repo>
  <version>v1.0.4</version>
  <next number="1" owner="wolskp" repo="master-and-servant-octaves"/>
  <readme>
    <ru>ba650f1977a839817599545e3003cb88a293a84f3576cd435d31a453d5d5c29e</ru>
    <en>4c79af82732df8798e23a3c6e28889ec0f903228c49bc7cae1e6124b7ae23651</en>
  </readme>
  <license>b1b99f5538d1fd3702219bff50c665196dfa42f6ee755c37fe41a6178d6bc6e5</license>
  <exercise number="1">
    <scale>major</scale>
    <bpm>80</bpm>
    <lowestNote>1</lowestNote>
    <tonalities>1,2,3,4,5,6,7,8,9,10,11,12</tonalities>
    <notes>
      <note number="1" values="1,18" ticks="0" durationTicks="187" ppq="96" velocity="0.843"/>
      <note number="2" values="1,18" ticks="0" durationTicks="91" ppq="96" velocity="0.913"/>
      <note number="3" values="1,18" ticks="191" durationTicks="95" ppq="96" velocity="0.913"/>
      <note number="4" values="1,18" ticks="191" durationTicks="192" ppq="96" velocity="0.913"/>
    </notes>
  </exercise>
  <exercise number="2">
    <scale>major</scale>
    <bpm>80</bpm>
    <lowestNote>1</lowestNote>
    <tonalities>1,2,3,4,5,6,7,8,9,10,11,12</tonalities>
    <notes>
      <note number="1" values="1,18" ticks="0" durationTicks="187" ppq="96" velocity="0.843"/>
      <note number="2" values="1,18" ticks="0" durationTicks="91" ppq="96" velocity="0.913"/>
      <note number="3" values="1,18" ticks="191" durationTicks="95" ppq="96" velocity="0.913"/>
      <note number="4" values="1,18" ticks="191" durationTicks="192" ppq="96" velocity="0.913"/>
    </notes>
  </exercise>
  <exercise number="3">
    <scale>major</scale>
    <bpm>80</bpm>
    <lowestNote>1</lowestNote>
    <tonalities>1,2,3,4,5,6,7,8,9,10,11,12</tonalities>
    <notes>
      <note number="1" values="1,18" ticks="0" durationTicks="187" ppq="96" velocity="0.843"/>
      <note number="2" values="1,18" ticks="0" durationTicks="91" ppq="96" velocity="0.913"/>
      <note number="3" values="1,18" ticks="191" durationTicks="95" ppq="96" velocity="0.913"/>
      <note number="4" values="1,18" ticks="191" durationTicks="192" ppq="96" velocity="0.913"/>
    </notes>
  </exercise>
  <exercise number="4">
    <scale>major</scale>
    <bpm>80</bpm>
    <lowestNote>1</lowestNote>
    <tonalities>1,2,3,4,5,6,7,8,9,10,11,12</tonalities>
    <notes>
      <note number="1" values="1,18" ticks="0" durationTicks="187" ppq="96" velocity="0.843"/>
      <note number="2" values="1,18" ticks="0" durationTicks="91" ppq="96" velocity="0.913"/>
      <note number="3" values="1,18" ticks="191" durationTicks="95" ppq="96" velocity="0.913"/>
      <note number="4" values="1,18" ticks="191" durationTicks="192" ppq="96" velocity="0.913"/>
    </notes>
  </exercise>
  <exercise number="5">
    <scale>major</scale>
    <bpm>80</bpm>
    <lowestNote>1</lowestNote>
    <tonalities>1,2,3,4,5,6,7,8,9,10,11,12</tonalities>
    <notes>
      <note number="1" values="1,18" ticks="0" durationTicks="187" ppq="96" velocity="0.843"/>
      <note number="2" values="1,18" ticks="0" durationTicks="91" ppq="96" velocity="0.913"/>
      <note number="3" values="1,18" ticks="191" durationTicks="95" ppq="96" velocity="0.913"/>
      <note number="4" values="1,18" ticks="191" durationTicks="192" ppq="96" velocity="0.913"/>
    </notes>
  </exercise>
  <exercise number="6">
    <scale>major</scale>
    <bpm>80</bpm>
    <lowestNote>1</lowestNote>
    <tonalities>1,2,3,4,5,6,7,8,9,10,11,12</tonalities>
    <notes>
      <note number="1" values="1,18" ticks="0" durationTicks="187" ppq="96" velocity="0.843"/>
      <note number="2" values="1,18" ticks="0" durationTicks="91" ppq="96" velocity="0.913"/>
      <note number="3" values="1,18" ticks="191" durationTicks="95" ppq="96" velocity="0.913"/>
      <note number="4" values="1,18" ticks="191" durationTicks="192" ppq="96" velocity="0.913"/>
    </notes>
  </exercise>
  <exercise number="7">
    <scale>major</scale>
    <bpm>80</bpm>
    <lowestNote>1</lowestNote>
    <tonalities>1,2,3,4,5,6,7,8,9,10,11,12</tonalities>
    <notes>
      <note number="1" values="1,18" ticks="0" durationTicks="187" ppq="96" velocity="0.843"/>
      <note number="2" values="1,18" ticks="0" durationTicks="91" ppq="96" velocity="0.913"/>
      <note number="3" values="1,18" ticks="191" durationTicks="95" ppq="96" velocity="0.913"/>
      <note number="4" values="1,18" ticks="191" durationTicks="192" ppq="96" velocity="0.913"/>
    </notes>
  </exercise>
  <exercise number="8">
    <scale>major</scale>
    <bpm>80</bpm>
    <lowestNote>1</lowestNote>
    <tonalities>1,2,3,4,5,6,7,8,9,10,11,12</tonalities>
    <notes>
      <note number="1" values="1,18" ticks="0" durationTicks="187" ppq="96" velocity="0.843"/>
      <note number="2" values="1,18" ticks="0" durationTicks="91" ppq="96" velocity="0.913"/>
      <note number="3" values="1,18" ticks="191" durationTicks="95" ppq="96" velocity="0.913"/>
      <note number="4" values="1,18" ticks="191" durationTicks="192" ppq="96" velocity="0.913"/>
    </notes>
  </exercise>
  <exercise number="9">
    <scale>major</scale>
    <bpm>80</bpm>
    <lowestNote>1</lowestNote>
    <tonalities>1,2,3,4,5,6,7,8,9,10,11,12</tonalities>
    <notes>
      <note number="1" values="1,18" ticks="0" durationTicks="187" ppq="96" velocity="0.843"/>
      <note number="2" values="1,18" ticks="0" durationTicks="91" ppq="96" velocity="0.913"/>
      <note number="3" values="1,18" ticks="191" durationTicks="95" ppq="96" velocity="0.913"/>
      <note number="4" values="1,18" ticks="191" durationTicks="192" ppq="96" velocity="0.913"/>
    </notes>
  </exercise>
  <exercise number="10">
    <scale>major</scale>
    <bpm>80</bpm>
    <lowestNote>1</lowestNote>
    <tonalities>1,2,3,4,5,6,7,8,9,10,11,12</tonalities>
    <notes>
      <note number="1" values="1,18" ticks="0" durationTicks="187" ppq="96" velocity="0.843"/>
      <note number="2" values="1,18" ticks="0" durationTicks="91" ppq="96" velocity="0.913"/>
      <note number="3" values="1,18" ticks="191" durationTicks="95" ppq="96" velocity="0.913"/>
      <note number="4" values="1,18" ticks="191" durationTicks="192" ppq="96" velocity="0.913"/>
    </notes>
  </exercise>
</level>
